<svg xmlns="http://www.w3.org/2000/svg" xmlns:xlink="http://www.w3.org/1999/xlink" width="50" height="50" viewBox="0 0 7.25 7.25"><defs><style>.cls-1{fill:url(#Degradado_sin_nombre_7);}.cls-2{fill:#fff;}</style><radialGradient id="Degradado_sin_nombre_7" cx="2.45" cy="2.23" r="5.85" gradientUnits="userSpaceOnUse"><stop offset="0" stop-color="#ffcf00"/><stop offset="0.55" stop-color="#ff4383"/><stop offset="1" stop-color="#a022fe"/></radialGradient></defs><title>156</title><g id="OBJECTS"><rect class="cls-1" width="7.25" height="7.25" rx="1.24"/><path class="cls-2" d="M4.63,1.37h-2A1.25,1.25,0,0,0,1.37,2.61v2A1.24,1.24,0,0,0,2.61,5.87h2A1.23,1.23,0,0,0,5.87,4.63v-2A1.24,1.24,0,0,0,4.63,1.37Zm.88,3.26a.89.89,0,0,1-.88.88h-2a.88.88,0,0,1-.88-.88v-2a.87.87,0,0,1,.88-.88h2a.88.88,0,0,1,.88.88Z"/><path class="cls-2" d="M3.62,2.44A1.19,1.19,0,1,0,4.81,3.62,1.18,1.18,0,0,0,3.62,2.44Zm0,2a.78.78,0,1,1,.78-.78A.78.78,0,0,1,3.62,4.4Z"/><path class="cls-2" d="M5.12,2.4a.27.27,0,1,1-.27-.27A.27.27,0,0,1,5.12,2.4Z"/></g></svg>
